<svg width="25" height="24" viewBox="0 0 25 24" fill="none" xmlns="http://www.w3.org/2000/svg">
    <path d="M12.125 16.5C14.6103 16.5 16.625 14.4853 16.625 12C16.625 9.51472 14.6103 7.5 12.125 7.5C9.63972 7.5 7.625 9.51472 7.625 12C7.625 14.4853 9.63972 16.5 12.125 16.5Z" stroke="#899194" stroke-linecap="round" stroke-linejoin="round"/>
    <path d="M18.6302 7.56523C18.8559 7.88836 19.0535 8.23024 19.2208 8.58711L21.6489 9.93711C21.9521 11.2951 21.9553 12.7028 21.6583 14.0621L19.2208 15.4121C19.0535 15.769 18.8559 16.1109 18.6302 16.434L18.6771 19.2184C17.648 20.1561 16.4301 20.8625 15.1052 21.2902L12.7146 19.8559C12.3213 19.884 11.9266 19.884 11.5333 19.8559L9.15205 21.2809C7.82297 20.861 6.60102 20.1572 5.5708 19.2184L5.61768 16.4434C5.39387 16.1158 5.19638 15.7709 5.02705 15.4121L2.59893 14.0621C2.29574 12.7042 2.29254 11.2964 2.58955 9.93711L5.02705 8.58711C5.19438 8.23024 5.39198 7.88836 5.61768 7.56523L5.5708 4.78086C6.59985 3.84314 7.81779 3.13667 9.14268 2.70898L11.5333 4.14336C11.9266 4.11523 12.3213 4.11523 12.7146 4.14336L15.0958 2.71836C16.4249 3.13826 17.6468 3.842 18.6771 4.78086L18.6302 7.56523Z" stroke="#899194" stroke-linecap="round" stroke-linejoin="round"/>
    </svg>
    